# xmcd
#
# Track frame offsets:
#	150
#	14042
#	28236
#	49921
#	64740
#	84147
#	100984
#	114746
#	127624
#	145250
#	162095
#	178368
#
# Disc length: 2600 seconds
# Revision: 0
# Processed by: cddbd v1.5.2PL0 Copyright (c) Steve Scherf et al.
# Submitted via: dBpowerAMP V12.0
#
DISCID=a20a260c
DTITLE=Ginger Sands - Back To The Garden
DYEAR=2010
DGENRE=Folk
TTITLE0=Up Around The Bend
TTITLE1=Wildflowers
TTITLE2=Woodstock
TTITLE3=Earth Girl
TTITLE4=Bein' Green
TTITLE5=Morning Has Broken
TTITLE6=Garden Song
TTITLE7=Lightning Bugs
TTITLE8=Love Is Like A Butterfly
TTITLE9=Hummingbird
TTITLE10=Homegrown Tomatoes
TTITLE11=Rainbow
EXTD=
EXTT0=
EXTT1=
EXTT2=
EXTT3=
EXTT4=
EXTT5=
EXTT6=
EXTT7=
EXTT8=
EXTT9=
EXTT10=
EXTT11=
PLAYORDER=
